<mxfile host="app.diagrams.net" agent="Mozilla/5.0 (Windows NT 10.0; Win64; x64) AppleWebKit/537.36 (KHTML, like Gecko) Chrome/133.0.0.0 Safari/537.36" version="26.0.16">
  <diagram id="scoreboard-flow-full" name="Scoreboard Flow Full">
    <mxGraphModel dx="3215" dy="857" grid="1" gridSize="10" guides="1" tooltips="1" connect="1" arrows="1" fold="1" page="1" pageScale="1" pageWidth="1600" pageHeight="2000" background="#ffffff" math="0" shadow="0">
      <root>
        <mxCell id="0" />
        <mxCell id="1" parent="0" />
        <mxCell id="actor" value="Actor (User)" style="shape=umlActor;verticalLabelPosition=bottom;verticalAlign=top;" parent="1" vertex="1">
          <mxGeometry x="50" y="55" width="30" height="60" as="geometry" />
        </mxCell>
        <mxCell id="userAction" value="User Action" style="rounded=1;whiteSpace=wrap;html=1;strokeWidth=2;" parent="1" vertex="1">
          <mxGeometry x="130" y="60" width="120" height="50" as="geometry" />
        </mxCell>
        <mxCell id="edge0" style="edgeStyle=elbowEdgeStyle;rounded=1;orthogonalLoop=1;" parent="1" source="actor" target="userAction" edge="1">
          <mxGeometry relative="1" as="geometry" />
        </mxCell>
        <mxCell id="apiReceive" value="API Receives Score Update" style="rounded=1;whiteSpace=wrap;html=1;strokeWidth=2;" parent="1" vertex="1">
          <mxGeometry x="130" y="140" width="180" height="50" as="geometry" />
        </mxCell>
        <mxCell id="edge1" style="edgeStyle=elbowEdgeStyle;rounded=1;orthogonalLoop=1;" parent="1" source="userAction" target="apiReceive" edge="1">
          <mxGeometry relative="1" as="geometry" />
        </mxCell>
        <mxCell id="checkRateLimit" value="Check Rate Limit" style="rounded=1;whiteSpace=wrap;html=1;strokeWidth=2;fillColor=#fff2cc;" parent="1" vertex="1">
          <mxGeometry x="130" y="220" width="140" height="50" as="geometry" />
        </mxCell>
        <mxCell id="edge2" style="edgeStyle=elbowEdgeStyle;rounded=1;orthogonalLoop=1;" parent="1" source="apiReceive" target="checkRateLimit" edge="1">
          <mxGeometry relative="1" as="geometry" />
        </mxCell>
        <mxCell id="validateRequest" value="Validate Request Data" style="rounded=1;whiteSpace=wrap;html=1;strokeWidth=2;" parent="1" vertex="1">
          <mxGeometry x="130" y="300" width="160" height="50" as="geometry" />
        </mxCell>
        <mxCell id="edge3" style="edgeStyle=elbowEdgeStyle;rounded=1;orthogonalLoop=1;" parent="1" source="checkRateLimit" target="validateRequest" edge="1">
          <mxGeometry relative="1" as="geometry" />
        </mxCell>
        <mxCell id="verifyJWT" value="Verify JWT Token" style="rhombus;whiteSpace=wrap;html=1;strokeWidth=2;perimeter=rhombusPerimeter;" parent="1" vertex="1">
          <mxGeometry x="140" y="395" width="120" height="60" as="geometry" />
        </mxCell>
        <mxCell id="edge4" style="edgeStyle=elbowEdgeStyle;rounded=1;orthogonalLoop=1;" parent="1" source="validateRequest" target="verifyJWT" edge="1">
          <mxGeometry relative="1" as="geometry" />
        </mxCell>
        <mxCell id="rejectScore" value="Reject Update Score" style="rounded=1;whiteSpace=wrap;html=1;strokeWidth=2;fillColor=#F8CECC;" parent="1" vertex="1">
          <mxGeometry x="-70" y="400" width="140" height="50" as="geometry" />
        </mxCell>
        <mxCell id="edge5" value="Fail" style="edgeStyle=elbowEdgeStyle;rounded=1;orthogonalLoop=1;" parent="1" source="verifyJWT" target="rejectScore" edge="1">
          <mxGeometry relative="1" as="geometry" />
        </mxCell>
        <mxCell id="returnError" value="Return Error Response" style="rounded=1;whiteSpace=wrap;html=1;strokeWidth=2;fillColor=#F8CECC;" parent="1" vertex="1">
          <mxGeometry x="-280" y="400" width="140" height="50" as="geometry" />
        </mxCell>
        <mxCell id="edge6" style="edgeStyle=elbowEdgeStyle;rounded=1;orthogonalLoop=1;" parent="1" source="rejectScore" target="returnError" edge="1">
          <mxGeometry relative="1" as="geometry" />
        </mxCell>
        <mxCell id="userError" value="User Sees Error Message" style="rounded=1;whiteSpace=wrap;html=1;strokeWidth=2;" parent="1" vertex="1">
          <mxGeometry x="-280" y="310" width="160" height="50" as="geometry" />
        </mxCell>
        <mxCell id="edge7" style="edgeStyle=elbowEdgeStyle;rounded=1;orthogonalLoop=1;" parent="1" source="returnError" target="userError" edge="1">
          <mxGeometry relative="1" as="geometry" />
        </mxCell>
        <mxCell id="returnSuccess" value="Return Success Response" style="rounded=1;whiteSpace=wrap;html=1;strokeWidth=2;fillColor=#DAE8FC;" parent="1" vertex="1">
          <mxGeometry x="420" y="910" width="170" height="50" as="geometry" />
        </mxCell>
        <mxCell id="edge25" style="edgeStyle=elbowEdgeStyle;rounded=1;orthogonalLoop=1;" parent="1" source="sendNotifications" target="returnSuccess" edge="1">
          <mxGeometry relative="1" as="geometry" />
        </mxCell>
        <mxCell id="userSuccess" value="User Sees Updated Scoreboard" style="rounded=1;whiteSpace=wrap;html=1;strokeWidth=2;" parent="1" vertex="1">
          <mxGeometry x="-275" y="910" width="220" height="50" as="geometry" />
        </mxCell>
        <mxCell id="edge26" style="edgeStyle=elbowEdgeStyle;rounded=1;orthogonalLoop=1;" parent="1" source="returnSuccess" target="userSuccess" edge="1">
          <mxGeometry relative="1" as="geometry" />
        </mxCell>
        <mxCell id="C_50sfIYT1ULboGjB70R-5" value="" style="swimlane;startSize=0;" vertex="1" parent="1">
          <mxGeometry x="-350" y="470" width="1010" height="420" as="geometry" />
        </mxCell>
        <mxCell id="compareScores" value="Compare Old Score vs New Score" style="rounded=1;whiteSpace=wrap;html=1;strokeWidth=2;fillColor=#fff2cc;" parent="C_50sfIYT1ULboGjB70R-5" vertex="1">
          <mxGeometry x="770" y="110" width="200" height="50" as="geometry" />
        </mxCell>
        <mxCell id="loadUserProfile" value="Load User Profile" style="rounded=1;whiteSpace=wrap;html=1;strokeWidth=2;fillColor=#d5e8d4;" parent="C_50sfIYT1ULboGjB70R-5" vertex="1">
          <mxGeometry x="770" y="40" width="140" height="50" as="geometry" />
        </mxCell>
        <mxCell id="edge11" style="edgeStyle=elbowEdgeStyle;rounded=1;orthogonalLoop=1;" parent="C_50sfIYT1ULboGjB70R-5" source="loadUserProfile" target="compareScores" edge="1">
          <mxGeometry relative="1" as="geometry" />
        </mxCell>
        <mxCell id="checkMembership" value="Check Membership/Subscription" style="rounded=1;whiteSpace=wrap;html=1;strokeWidth=2;fillColor=#d5e8d4;" parent="C_50sfIYT1ULboGjB70R-5" vertex="1">
          <mxGeometry x="360" y="110" width="220" height="50" as="geometry" />
        </mxCell>
        <mxCell id="edge12" style="edgeStyle=elbowEdgeStyle;rounded=1;orthogonalLoop=1;" parent="C_50sfIYT1ULboGjB70R-5" source="compareScores" target="checkMembership" edge="1">
          <mxGeometry relative="1" as="geometry" />
        </mxCell>
        <mxCell id="acquireLock" value="Acquire DB Lock" style="rounded=1;whiteSpace=wrap;html=1;strokeWidth=2;fillColor=#fff2cc;" parent="C_50sfIYT1ULboGjB70R-5" vertex="1">
          <mxGeometry x="50" y="340" width="140" height="50" as="geometry" />
        </mxCell>
        <mxCell id="updateScoreDB" value="Update Score in DB" style="rounded=1;whiteSpace=wrap;html=1;strokeWidth=2;" parent="C_50sfIYT1ULboGjB70R-5" vertex="1">
          <mxGeometry x="240" y="340" width="140" height="50" as="geometry" />
        </mxCell>
        <mxCell id="edge21" style="edgeStyle=elbowEdgeStyle;rounded=1;orthogonalLoop=1;" parent="C_50sfIYT1ULboGjB70R-5" source="acquireLock" target="updateScoreDB" edge="1">
          <mxGeometry relative="1" as="geometry" />
        </mxCell>
        <mxCell id="logUpdate" value="Log Update" style="rounded=1;whiteSpace=wrap;html=1;strokeWidth=2;dashed=1;" parent="C_50sfIYT1ULboGjB70R-5" vertex="1">
          <mxGeometry x="420" y="340" width="140" height="50" as="geometry" />
        </mxCell>
        <mxCell id="edge22" style="edgeStyle=elbowEdgeStyle;rounded=1;orthogonalLoop=1;" parent="C_50sfIYT1ULboGjB70R-5" source="updateScoreDB" target="logUpdate" edge="1">
          <mxGeometry relative="1" as="geometry" />
        </mxCell>
        <mxCell id="sendNotifications" value="Send Notifications" style="rounded=1;whiteSpace=wrap;html=1;strokeWidth=2;" parent="C_50sfIYT1ULboGjB70R-5" vertex="1">
          <mxGeometry x="830" y="340" width="140" height="50" as="geometry" />
        </mxCell>
        <mxCell id="broadcast" value="Broadcast to Clients" style="rounded=1;whiteSpace=wrap;html=1;strokeWidth=2;" parent="C_50sfIYT1ULboGjB70R-5" vertex="1">
          <mxGeometry x="620" y="340" width="160" height="50" as="geometry" />
        </mxCell>
        <mxCell id="edge23" style="edgeStyle=elbowEdgeStyle;rounded=1;orthogonalLoop=1;" parent="C_50sfIYT1ULboGjB70R-5" source="logUpdate" target="broadcast" edge="1">
          <mxGeometry relative="1" as="geometry" />
        </mxCell>
        <mxCell id="edge24" style="edgeStyle=elbowEdgeStyle;rounded=1;orthogonalLoop=1;" parent="C_50sfIYT1ULboGjB70R-5" source="broadcast" target="sendNotifications" edge="1">
          <mxGeometry relative="1" as="geometry" />
        </mxCell>
        <mxCell id="send3rdParty" value="Send Data to 3rd-Party Service" style="rounded=1;whiteSpace=wrap;html=1;strokeWidth=2;fillColor=#fff2cc;" parent="C_50sfIYT1ULboGjB70R-5" vertex="1">
          <mxGeometry x="50" y="260" width="240" height="50" as="geometry" />
        </mxCell>
        <mxCell id="edge20" style="edgeStyle=elbowEdgeStyle;rounded=1;orthogonalLoop=1;" parent="C_50sfIYT1ULboGjB70R-5" source="send3rdParty" target="acquireLock" edge="1">
          <mxGeometry relative="1" as="geometry" />
        </mxCell>
        <mxCell id="enqueueTasks" value="Enqueue Tasks for Async Processing" style="rounded=1;whiteSpace=wrap;html=1;strokeWidth=2;" parent="C_50sfIYT1ULboGjB70R-5" vertex="1">
          <mxGeometry x="360" y="260" width="260" height="50" as="geometry" />
        </mxCell>
        <mxCell id="edge19" style="edgeStyle=elbowEdgeStyle;rounded=1;orthogonalLoop=1;" parent="C_50sfIYT1ULboGjB70R-5" source="enqueueTasks" target="send3rdParty" edge="1">
          <mxGeometry relative="1" as="geometry" />
        </mxCell>
        <mxCell id="checkPromotions" value="Check Special Events/Promotions" style="rounded=1;whiteSpace=wrap;html=1;strokeWidth=2;fillColor=#d5e8d4;" parent="C_50sfIYT1ULboGjB70R-5" vertex="1">
          <mxGeometry x="760" y="260" width="240" height="50" as="geometry" />
        </mxCell>
        <mxCell id="edge18" style="edgeStyle=elbowEdgeStyle;rounded=1;orthogonalLoop=1;" parent="C_50sfIYT1ULboGjB70R-5" source="checkPromotions" target="enqueueTasks" edge="1">
          <mxGeometry relative="1" as="geometry" />
        </mxCell>
        <mxCell id="updatePartialStats" value="Update Partial Stats (e.g. K/D, time played)" style="rounded=1;whiteSpace=wrap;html=1;strokeWidth=2;" parent="C_50sfIYT1ULboGjB70R-5" vertex="1">
          <mxGeometry x="50" y="190" width="280" height="50" as="geometry" />
        </mxCell>
        <mxCell id="checkAchievements" value="Check Achievements/Challenges" style="rounded=1;whiteSpace=wrap;html=1;strokeWidth=2;fillColor=#d5e8d4;" parent="C_50sfIYT1ULboGjB70R-5" vertex="1">
          <mxGeometry x="360" y="190" width="220" height="50" as="geometry" />
        </mxCell>
        <mxCell id="edge15" style="edgeStyle=elbowEdgeStyle;rounded=1;orthogonalLoop=1;" parent="C_50sfIYT1ULboGjB70R-5" source="updatePartialStats" target="checkAchievements" edge="1">
          <mxGeometry relative="1" as="geometry" />
        </mxCell>
        <mxCell id="recordAnalytics" value="Record Analytics Event" style="rounded=1;whiteSpace=wrap;html=1;strokeWidth=2;fillColor=#fff2cc;" parent="C_50sfIYT1ULboGjB70R-5" vertex="1">
          <mxGeometry x="770" y="190" width="180" height="50" as="geometry" />
        </mxCell>
        <mxCell id="edge16" style="edgeStyle=elbowEdgeStyle;rounded=1;orthogonalLoop=1;" parent="C_50sfIYT1ULboGjB70R-5" source="checkAchievements" target="recordAnalytics" edge="1">
          <mxGeometry relative="1" as="geometry" />
        </mxCell>
        <mxCell id="edge17" style="edgeStyle=elbowEdgeStyle;rounded=1;orthogonalLoop=1;" parent="C_50sfIYT1ULboGjB70R-5" source="recordAnalytics" target="checkPromotions" edge="1">
          <mxGeometry relative="1" as="geometry" />
        </mxCell>
        <mxCell id="calcBonus" value="Calculate Bonus Points" style="rounded=1;whiteSpace=wrap;html=1;strokeWidth=2;fillColor=#fff2cc;" parent="C_50sfIYT1ULboGjB70R-5" vertex="1">
          <mxGeometry x="50" y="110" width="180" height="50" as="geometry" />
        </mxCell>
        <mxCell id="edge13" style="edgeStyle=elbowEdgeStyle;rounded=1;orthogonalLoop=1;" parent="C_50sfIYT1ULboGjB70R-5" source="checkMembership" target="calcBonus" edge="1">
          <mxGeometry relative="1" as="geometry" />
        </mxCell>
        <mxCell id="edge14" style="edgeStyle=elbowEdgeStyle;rounded=1;orthogonalLoop=1;" parent="C_50sfIYT1ULboGjB70R-5" source="calcBonus" target="updatePartialStats" edge="1">
          <mxGeometry relative="1" as="geometry" />
        </mxCell>
        <mxCell id="parseScore" value="Parse Score Data" style="rounded=1;whiteSpace=wrap;html=1;strokeWidth=2;" parent="C_50sfIYT1ULboGjB70R-5" vertex="1">
          <mxGeometry x="510" y="40" width="140" height="50" as="geometry" />
        </mxCell>
        <mxCell id="edge10" style="edgeStyle=elbowEdgeStyle;rounded=1;orthogonalLoop=1;" parent="C_50sfIYT1ULboGjB70R-5" source="parseScore" target="loadUserProfile" edge="1">
          <mxGeometry relative="1" as="geometry" />
        </mxCell>
        <mxCell id="C_50sfIYT1ULboGjB70R-7" value="" style="edgeStyle=segmentEdgeStyle;endArrow=classic;html=1;curved=0;rounded=0;endSize=8;startSize=8;exitX=-0.001;exitY=0.432;exitDx=0;exitDy=0;exitPerimeter=0;entryX=0.357;entryY=0;entryDx=0;entryDy=0;entryPerimeter=0;" edge="1" parent="1" source="C_50sfIYT1ULboGjB70R-5" target="rejectScore">
          <mxGeometry width="50" height="50" relative="1" as="geometry">
            <mxPoint x="80" y="500" as="sourcePoint" />
            <mxPoint x="130" y="450" as="targetPoint" />
            <Array as="points">
              <mxPoint x="-410" y="651" />
              <mxPoint x="-410" y="250" />
              <mxPoint x="-20" y="250" />
            </Array>
          </mxGeometry>
        </mxCell>
        <mxCell id="C_50sfIYT1ULboGjB70R-8" value="&lt;font style=&quot;font-size: 14px;&quot;&gt;On something fail&lt;/font&gt;" style="text;html=1;align=center;verticalAlign=middle;resizable=0;points=[];autosize=1;strokeColor=none;fillColor=none;" vertex="1" parent="1">
          <mxGeometry x="-405" y="228" width="130" height="30" as="geometry" />
        </mxCell>
        <mxCell id="C_50sfIYT1ULboGjB70R-10" value="" style="edgeStyle=segmentEdgeStyle;endArrow=classic;html=1;curved=0;rounded=0;endSize=8;startSize=8;exitX=1;exitY=0.5;exitDx=0;exitDy=0;entryX=0.75;entryY=0;entryDx=0;entryDy=0;" edge="1" parent="1" source="verifyJWT" target="parseScore">
          <mxGeometry width="50" height="50" relative="1" as="geometry">
            <mxPoint x="90" y="600" as="sourcePoint" />
            <mxPoint x="140" y="550" as="targetPoint" />
          </mxGeometry>
        </mxCell>
        <mxCell id="C_50sfIYT1ULboGjB70R-11" value="Success" style="text;html=1;align=center;verticalAlign=middle;resizable=0;points=[];autosize=1;strokeColor=none;fillColor=none;" vertex="1" parent="1">
          <mxGeometry x="255" y="428" width="70" height="30" as="geometry" />
        </mxCell>
      </root>
    </mxGraphModel>
  </diagram>
</mxfile>
